<?xml version="1.0" encoding="utf-8"?>
<!-- Generator: Adobe Illustrator 22.0.0, SVG Export Plug-In . SVG Version: 6.00 Build 0)  -->
<svg version="1.1" id="Layer_1" xmlns="http://www.w3.org/2000/svg" xmlns:xlink="http://www.w3.org/1999/xlink" x="0px" y="0px"
	 viewBox="0 0 134.2 112.8" style="enable-background:new 0 0 134.2 112.8;" xml:space="preserve">
<g>
	<path class="st0" d="M12.9,69.5c0,0-24.1-42-6.4-60.4c17.4-18.2,68.3-5.9,104,8.8c0,0-61.8,0-65.5,0c-6.8,0.1-19.9,4.9-23,16.3
		C18.9,46.1,12.9,69.5,12.9,69.5z"/>
	<path class="st1" d="M66.8,26h16.1c0,0,2,0.3,1.6,1.8c-0.4,1.5-7.7,28.8-7.7,28.8s-0.2,1.8-3.5,1.8c-3.3,0-14.4,0-14.4,0
		s-3,0.2-2.2-2.5c0.8-2.7,7.5-28,7.5-28S65,26,66.8,26z"/>
	<path class="st2" d="M122,24.2c0,0,13.9,8.7,12.1,22.4c-2.2,17.1-17.6,40.5-31.2,51c0,0-18.2,16.7-35.5,15.1
		c-17.4-1.7-32.2-10.5-47.4-32c0,0,3.5,2,8.2,2s69.6,0,69.6,0s0.9-0.1,2.6-0.8c1.7-0.8,9.8-5.1,10.5-6.2c0.7-1.1,0.3-1.3-0.4-1.3
		H54.1c0,0-1.8-0.2-1.8-1.8c0.1-1.6,0.8-4,0.8-4s1-1.9,2.9-2h40.2c0,0,17.9-0.6,23-15.9c3.2-12.5,4.5-17.7,4.5-17.7
		S124.9,28.3,122,24.2z"/>
</g>
</svg>
